<svg width="1600" height="900" viewBox="0 0 1600 900" fill="none" xmlns="http://www.w3.org/2000/svg">
  <defs>
    <linearGradient id="bg" x1="108" y1="92" x2="1454" y2="786" gradientUnits="userSpaceOnUse">
      <stop stop-color="#39465F"/>
      <stop offset="0.52" stop-color="#2D394F"/>
      <stop offset="1" stop-color="#232D40"/>
    </linearGradient>
    <radialGradient id="glow" cx="0" cy="0" r="1" gradientUnits="userSpaceOnUse" gradientTransform="translate(1184 270) rotate(146.897) scale(372.155 322.547)">
      <stop stop-color="#CBD3E0" stop-opacity="0.48"/>
      <stop offset="1" stop-color="#CBD3E0" stop-opacity="0"/>
    </radialGradient>
    <filter id="blur" x="-120" y="-120" width="1840" height="1140" filterUnits="userSpaceOnUse" color-interpolation-filters="sRGB">
      <feGaussianBlur stdDeviation="24"/>
    </filter>
    <filter id="softBlur" x="-120" y="-120" width="1840" height="1140" filterUnits="userSpaceOnUse" color-interpolation-filters="sRGB">
      <feGaussianBlur stdDeviation="10"/>
    </filter>
  </defs>

  <rect width="1600" height="900" fill="url(#bg)"/>
  <rect width="1600" height="900" fill="url(#glow)"/>

  <g filter="url(#blur)" opacity="0.3">
    <rect x="84" y="146" width="156" height="618" rx="36" fill="#D2D8E1"/>
    <rect x="264" y="114" width="138" height="670" rx="32" fill="#C2CAD7"/>
    <rect x="432" y="162" width="128" height="586" rx="28" fill="#E0E5EC"/>
    <rect x="578" y="138" width="170" height="640" rx="34" fill="#BBC3D1"/>
  </g>

  <g opacity="0.2" filter="url(#softBlur)">
    <path d="M768 58L962 828" stroke="#E3E7EE" stroke-width="48" stroke-linecap="round"/>
    <path d="M896 52L1102 828" stroke="#D5DBE6" stroke-width="28" stroke-linecap="round"/>
  </g>

  <g opacity="0.92" transform="translate(1100 170)">
    <path d="M174 46L30 124L174 174L318 124L174 46Z" fill="#C8D0DC"/>
    <rect x="164" y="158" width="20" height="200" rx="10" fill="#CFD6E1"/>
    <rect x="76" y="338" width="196" height="22" rx="11" fill="#CFD6E1"/>
    <path d="M112 126V204" stroke="#CFD6E1" stroke-width="14" stroke-linecap="round"/>
    <path d="M236 126V204" stroke="#CFD6E1" stroke-width="14" stroke-linecap="round"/>
    <path d="M78 198H146" stroke="#CFD6E1" stroke-width="12" stroke-linecap="round"/>
    <path d="M204 198H272" stroke="#CFD6E1" stroke-width="12" stroke-linecap="round"/>
    <path d="M70 204L112 286L154 204H70Z" fill="#D7DDE6"/>
    <path d="M194 204L236 286L278 204H194Z" fill="#D7DDE6"/>
    <path d="M70 286C92 304 132 304 154 286" stroke="#EEF2F6" stroke-width="10" stroke-linecap="round"/>
    <path d="M194 286C216 304 256 304 278 286" stroke="#EEF2F6" stroke-width="10" stroke-linecap="round"/>
  </g>

  <g opacity="0.22" filter="url(#softBlur)">
    <ellipse cx="1298" cy="624" rx="188" ry="126" fill="#B9C2D2"/>
    <rect x="1016" y="538" width="118" height="236" rx="34" fill="#ADB8CA"/>
    <rect x="1148" y="514" width="98" height="262" rx="30" fill="#D0D8E4"/>
    <rect x="1260" y="544" width="132" height="228" rx="34" fill="#B0BACC"/>
  </g>

  <rect y="742" width="1600" height="158" fill="url(#bg)" fill-opacity="0.72"/>
</svg>
